<?xml version="1.0" encoding="UTF-8" standalone="no"?>
<!DOCTYPE svg PUBLIC "-//W3C//DTD SVG 1.1//EN"
 "http://www.w3.org/Graphics/SVG/1.1/DTD/svg11.dtd">
<!-- Generated by graphviz version 3.0.0 (20220226.1711)
 -->
<!-- Title: root Pages: 1 -->
<svg width="456pt" height="99pt"
 viewBox="0.00 0.00 456.47 99.00" xmlns="http://www.w3.org/2000/svg" xmlns:xlink="http://www.w3.org/1999/xlink">
<g id="graph0" class="graph" transform="scale(1 1) rotate(0) translate(4 95)">
<title>root</title>
<polygon fill="white" stroke="transparent" points="-4,4 -4,-95 452.47,-95 452.47,4 -4,4"/>
<g id="clust1" class="cluster">
<title>cluster_0</title>
<polygon fill="none" stroke="black" points="8,-8 8,-83 440.47,-83 440.47,-8 8,-8"/>
<text text-anchor="middle" x="224.23" y="-67.8" font-family="Times New Roman,serif" font-size="14.00">ChainedJobs</text>
</g>
<!-- ChainedJobs/MyFirstJob -->
<g id="node1" class="node">
<title>ChainedJobs/MyFirstJob</title>
<ellipse fill="none" stroke="black" cx="68.65" cy="-34" rx="52.79" ry="18"/>
<text text-anchor="middle" x="68.65" y="-30.3" font-family="Times New Roman,serif" font-size="14.00">MyFirstJob</text>
</g>
<!-- ChainedJobs/MySecondJob -->
<g id="node2" class="node">
<title>ChainedJobs/MySecondJob</title>
<ellipse fill="none" stroke="black" cx="220.99" cy="-34" rx="63.89" ry="18"/>
<text text-anchor="middle" x="220.99" y="-30.3" font-family="Times New Roman,serif" font-size="14.00">MySecondJob</text>
</g>
<!-- ChainedJobs/MyFirstJob&#45;&gt;ChainedJobs/MySecondJob -->
<g id="edge1" class="edge">
<title>ChainedJobs/MyFirstJob&#45;&gt;ChainedJobs/MySecondJob</title>
<path fill="none" stroke="black" d="M121.38,-34C129.69,-34 138.41,-34 147.1,-34"/>
<polygon fill="black" stroke="black" points="147.25,-37.5 157.25,-34 147.25,-30.5 147.25,-37.5"/>
</g>
<!-- ChainedJobs/MyThirdJob -->
<g id="node3" class="node">
<title>ChainedJobs/MyThirdJob</title>
<ellipse fill="none" stroke="black" cx="376.57" cy="-34" rx="55.79" ry="18"/>
<text text-anchor="middle" x="376.57" y="-30.3" font-family="Times New Roman,serif" font-size="14.00">MyThirdJob</text>
</g>
<!-- ChainedJobs/MySecondJob&#45;&gt;ChainedJobs/MyThirdJob -->
<g id="edge2" class="edge">
<title>ChainedJobs/MySecondJob&#45;&gt;ChainedJobs/MyThirdJob</title>
<path fill="none" stroke="black" d="M284.9,-34C293.26,-34 301.85,-34 310.26,-34"/>
<polygon fill="black" stroke="black" points="310.38,-37.5 320.38,-34 310.38,-30.5 310.38,-37.5"/>
</g>
</g>
</svg>
