<?xml version="1.0" encoding="UTF-8" standalone="no"?>
<!DOCTYPE svg PUBLIC "-//W3C//DTD SVG 1.1//EN"
 "http://www.w3.org/Graphics/SVG/1.1/DTD/svg11.dtd">
<!-- Generated by graphviz version 8.0.2 (20230410.1723)
 -->
<!-- Title: root Pages: 1 -->
<svg width="284pt" height="153pt"
 viewBox="0.00 0.00 283.58 153.00" xmlns="http://www.w3.org/2000/svg" xmlns:xlink="http://www.w3.org/1999/xlink">
<g id="graph0" class="graph" transform="scale(1 1) rotate(0) translate(4 149)">
<title>root</title>
<polygon fill="white" stroke="none" points="-4,4 -4,-149 279.58,-149 279.58,4 -4,4"/>
<g id="clust1" class="cluster">
<title>cluster_0</title>
<polygon fill="none" stroke="black" points="8,-8 8,-137 267.58,-137 267.58,-8 8,-8"/>
<text text-anchor="middle" x="137.79" y="-121.8" font-family="Times New Roman,serif" font-size="14.00">ChainedJobs</text>
</g>
<!-- ChainedJobs/Job1 -->
<g id="node1" class="node">
<title>ChainedJobs/Job1</title>
<ellipse fill="none" stroke="black" cx="44.6" cy="-61" rx="28.7" ry="18"/>
<text text-anchor="middle" x="44.6" y="-57.3" font-family="Times New Roman,serif" font-size="14.00">Job1</text>
</g>
<!-- ChainedJobs/Job2 -->
<g id="node2" class="node">
<title>ChainedJobs/Job2</title>
<ellipse fill="none" stroke="black" cx="137.79" cy="-34" rx="28.7" ry="18"/>
<text text-anchor="middle" x="137.79" y="-30.3" font-family="Times New Roman,serif" font-size="14.00">Job2</text>
</g>
<!-- ChainedJobs/Job1&#45;&gt;ChainedJobs/Job2 -->
<g id="edge1" class="edge">
<title>ChainedJobs/Job1&#45;&gt;ChainedJobs/Job2</title>
<path fill="none" stroke="black" d="M71,-53.48C80.21,-50.75 90.8,-47.62 100.75,-44.67"/>
<polygon fill="black" stroke="black" points="101.61,-47.77 110.21,-41.57 99.63,-41.06 101.61,-47.77"/>
</g>
<!-- ChainedJobs/Job3 -->
<g id="node3" class="node">
<title>ChainedJobs/Job3</title>
<ellipse fill="none" stroke="black" cx="137.79" cy="-88" rx="28.7" ry="18"/>
<text text-anchor="middle" x="137.79" y="-84.3" font-family="Times New Roman,serif" font-size="14.00">Job3</text>
</g>
<!-- ChainedJobs/Job1&#45;&gt;ChainedJobs/Job3 -->
<g id="edge2" class="edge">
<title>ChainedJobs/Job1&#45;&gt;ChainedJobs/Job3</title>
<path fill="none" stroke="black" d="M71,-68.52C80.21,-71.25 90.8,-74.38 100.75,-77.33"/>
<polygon fill="black" stroke="black" points="99.63,-80.94 110.21,-80.43 101.61,-74.23 99.63,-80.94"/>
</g>
<!-- ChainedJobs/Job4 -->
<g id="node4" class="node">
<title>ChainedJobs/Job4</title>
<ellipse fill="none" stroke="black" cx="230.99" cy="-61" rx="28.7" ry="18"/>
<text text-anchor="middle" x="230.99" y="-57.3" font-family="Times New Roman,serif" font-size="14.00">Job4</text>
</g>
<!-- ChainedJobs/Job2&#45;&gt;ChainedJobs/Job4 -->
<g id="edge3" class="edge">
<title>ChainedJobs/Job2&#45;&gt;ChainedJobs/Job4</title>
<path fill="none" stroke="black" d="M164.2,-41.52C173.41,-44.25 184,-47.38 193.95,-50.33"/>
<polygon fill="black" stroke="black" points="192.82,-53.94 203.4,-53.43 194.81,-47.23 192.82,-53.94"/>
</g>
<!-- ChainedJobs/Job3&#45;&gt;ChainedJobs/Job4 -->
<g id="edge4" class="edge">
<title>ChainedJobs/Job3&#45;&gt;ChainedJobs/Job4</title>
<path fill="none" stroke="black" d="M164.2,-80.48C173.41,-77.75 184,-74.62 193.95,-71.67"/>
<polygon fill="black" stroke="black" points="194.81,-74.77 203.4,-68.57 192.82,-68.06 194.81,-74.77"/>
</g>
</g>
</svg>
